<svg width="320" height="300" viewBox="0 0 320 300" fill="none" xmlns="http://www.w3.org/2000/svg">
  <!-- backdrop -->
  <circle cx="160" cy="152" r="118" fill="#FFEEE6"/>  <!-- backdrop blob: own token so dark mode can drop it to a neutral lift -->
  <circle cx="56" cy="92" r="7" fill="#F9BE00"/>
  <circle cx="276" cy="200" r="6" fill="#F26522" opacity="0.45"/>
  <circle cx="240" cy="272" r="4" fill="#F9BE00"/>

  <!-- banknote behind: cash on delivery is the only payment method, so this
       page shows notes rather than the bank cards it used to -->
  <g transform="rotate(-6 160 206)">
    <rect x="72" y="142" width="184" height="112" rx="14" fill="#FFD54A"/>
  </g>

  <!-- banknote in front -->
  <rect x="62" y="158" width="196" height="114" rx="14" fill="#FFFFFF" stroke="#E8EAED" stroke-width="2"/>
  <rect x="74" y="170" width="172" height="90" rx="8" stroke="#F9BE00" stroke-width="2"/>
  <circle cx="160" cy="215" r="26" fill="#FFD54A"/>
  <circle cx="160" cy="215" r="18" fill="#F9BE00"/>
  <path d="M156 205V225M151 209H164M151 217H168" stroke="#FFFFFF" stroke-width="2.6" stroke-linecap="round"/>
  <circle cx="94" cy="192" r="6" fill="#F26522" opacity="0.85"/>
  <circle cx="226" cy="238" r="6" fill="#F26522" opacity="0.85"/>

  <!-- shield -->
  <path d="M204 40L250 60V102C250 132.5 230.4 154.6 204 164C177.6 154.6 158 132.5 158 102V60L204 40Z" fill="#F9BE00"/>
  <path d="M204 52L239 67V102C239 125.8 224.3 144.4 204 152.4C183.7 144.4 169 125.8 169 102V67L204 52Z" fill="#FFD54A"/>
  <path d="M189 100.5L200.5 112L221 91" stroke="#2A2F34" stroke-width="9" stroke-linecap="round" stroke-linejoin="round"/>

  <!-- coin stack -->
  <path d="M30 260V268C30 273 40.7 277 54 277C67.3 277 78 273 78 268V260Z" fill="#D9A400"/>
  <ellipse cx="54" cy="260" rx="24" ry="9" fill="#FFD54A"/>
  <path d="M30 248V256C30 261 40.7 265 54 265C67.3 265 78 261 78 256V248Z" fill="#D9A400"/>
  <ellipse cx="54" cy="248" rx="24" ry="9" fill="#FFD54A"/>
  <path d="M30 236V244C30 249 40.7 253 54 253C67.3 253 78 249 78 244V236Z" fill="#D9A400"/>
  <ellipse cx="54" cy="236" rx="24" ry="9" fill="#F9BE00"/>
  <path d="M50 231V241M46.5 233.5H56.5M46.5 238.5H60" stroke="#FFFFFF" stroke-width="2.4" stroke-linecap="round"/>

  <!-- lock badge -->
  <circle cx="272" cy="108" r="22" fill="#F26522"/>
  <rect x="262" y="106" width="20" height="16" rx="4" fill="#FFFFFF"/>
  <path d="M266 106V101C266 97.7 268.7 95 272 95C275.3 95 278 97.7 278 101V106" stroke="#FFFFFF" stroke-width="3.5" stroke-linecap="round"/>
</svg>
